<?xml version="1.0" standalone="no"?>
<!DOCTYPE svg PUBLIC "-//W3C//DTD SVG 20010904//EN"
 "http://www.w3.org/TR/2001/REC-SVG-20010904/DTD/svg10.dtd">
<svg version="1.0" xmlns="http://www.w3.org/2000/svg"
 width="500.000000pt" height="500.000000pt" viewBox="0 0 500.000000 500.000000"
 preserveAspectRatio="xMidYMid meet">

<g transform="translate(0.000000,500.000000) scale(0.100000,-0.100000)"
fill="#000000" stroke="none">
<path d="M2160 2655 l0 -85 60 0 60 0 0 85 0 85 -60 0 -60 0 0 -85z"/>
<path d="M2440 2655 l0 -85 60 0 60 0 0 85 0 85 -60 0 -60 0 0 -85z"/>
<path d="M1742 1845 c1 -134 2 -135 25 -135 20 0 23 5 23 41 0 49 15 79 39 79
23 0 31 -19 31 -76 0 -37 3 -44 20 -44 18 0 20 7 20 61 0 33 -5 69 -10 80 -12
21 -50 25 -81 9 -18 -10 -19 -7 -19 55 0 63 -1 65 -25 65 l-25 0 2 -135z"/>
<path d="M3730 1845 l0 -135 25 0 c14 0 25 5 25 10 0 7 6 7 19 0 54 -29 111 9
111 73 0 47 -28 77 -73 77 -18 0 -38 -5 -45 -12 -9 -9 -12 3 -12 55 0 65 -1
67 -25 67 l-25 0 0 -135z m120 -30 c26 -32 -13 -81 -47 -59 -35 22 -23 74 17
74 10 0 23 -7 30 -15z"/>
<path d="M980 1835 l0 -125 25 0 c23 0 25 3 25 50 l0 50 45 0 45 0 0 -50 c0
-47 2 -50 25 -50 l25 0 0 125 0 125 -25 0 c-23 0 -25 -3 -25 -50 l0 -50 -45 0
-45 0 0 50 c0 47 -2 50 -25 50 l-25 0 0 -125z"/>
<path d="M1303 1953 c-7 -3 -13 -16 -13 -30 0 -20 4 -24 23 -21 13 2 23 11 25
24 3 22 -13 34 -35 27z"/>
<path d="M2150 1957 c0 -6 37 -192 45 -224 4 -17 13 -23 34 -23 26 0 29 4 51
78 12 42 25 82 28 87 4 6 18 -28 32 -75 25 -80 28 -85 57 -88 l30 -3 21 114
c27 142 27 137 -2 137 -26 0 -29 -8 -42 -95 -11 -84 -19 -82 -44 9 -21 78 -25
86 -47 86 -13 0 -25 -6 -28 -12 -2 -7 -14 -47 -26 -88 l-23 -75 -15 85 c-15
81 -17 85 -44 88 -15 2 -27 1 -27 -1z"/>
<path d="M1290 1790 c0 -79 0 -80 25 -80 25 0 25 1 25 80 0 79 0 80 -25 80
-25 0 -25 -1 -25 -80z"/>
<path d="M1472 1847 c-61 -65 11 -168 89 -127 16 9 19 7 19 -13 0 -12 -5 -28
-12 -35 -17 -17 -57 -15 -64 3 -8 20 -54 20 -54 0 0 -21 58 -55 93 -55 18 0
39 11 58 29 28 28 29 33 29 125 0 96 0 96 -25 96 -14 0 -25 -5 -25 -12 0 -9
-3 -9 -12 0 -20 20 -72 14 -96 -11z m98 -32 c26 -32 -13 -81 -47 -59 -35 22
-23 74 17 74 10 0 23 -7 30 -15z"/>
<path d="M2575 1785 c32 -81 33 -87 19 -120 -18 -45 -18 -45 10 -45 20 0 28 9
44 53 11 28 32 83 46 121 14 37 26 70 26 72 0 2 -10 4 -23 4 -20 0 -26 -9 -41
-56 -10 -31 -21 -53 -24 -49 -4 3 -14 27 -23 53 -13 38 -21 48 -42 50 l-26 3
34 -86z"/>
<path d="M2832 1847 c-76 -81 48 -189 126 -110 24 25 25 28 8 31 -10 2 -29 -1
-41 -8 -38 -20 -60 -9 -60 30 0 39 22 50 60 30 12 -7 31 -10 41 -8 17 3 16 6
-8 31 -36 36 -95 38 -126 4z"/>
<path d="M3095 1845 c-62 -61 -2 -148 89 -131 41 8 55 23 63 69 4 29 1 40 -20
61 -36 36 -98 36 -132 1z m100 -35 c11 -35 -3 -60 -35 -60 -32 0 -46 25 -35
60 4 14 15 20 35 20 20 0 31 -6 35 -20z"/>
<path d="M3352 1789 c3 -74 4 -79 26 -79 19 0 22 5 22 41 0 50 15 79 40 79 18
0 20 -7 20 -60 0 -57 1 -60 25 -60 23 0 25 3 25 49 0 51 18 78 45 67 11 -4 15
-21 15 -61 0 -52 1 -55 25 -55 24 0 25 3 25 58 0 89 -39 124 -101 91 -13 -6
-25 -7 -32 -1 -7 5 -40 9 -75 10 l-63 0 3 -79z"/>
<path d="M4035 1845 c-51 -50 -22 -122 52 -132 46 -6 93 15 93 42 0 19 -37 19
-56 0 -19 -19 -29 -19 -48 1 -25 25 -10 34 55 34 68 0 76 14 34 55 -18 19 -35
25 -65 25 -30 0 -47 -6 -65 -25z m103 -22 c2 -9 -8 -13 -32 -13 -34 0 -44 8
-29 24 11 11 56 2 61 -11z"/>
</g>
</svg>
